{"title":"Madeas Witness Protection 2012 CAM RIP Xvid-FANTA","uid":7430767,"size":734056609,"categoryP":"video","categoryS":"movies","magnet":"?xt=urn:btih:b583e8fbaeb605cab60357c9a927c874ead35f91&amp;dn=Madeas+Witness+Protection+2012+CAM+RIP+Xvid-FANTA&amp;tr=udp%3A%2F%2Ftracker.openbittorrent.com%3A80&amp;tr=udp%3A%2F%2Fopen.demonii.com%3A1337&amp;tr=udp%3A%2F%2Ftracker.coppersurfer.tk%3A6969&amp;tr=udp%3A%2F%2Fexodus.desync.com%3A6969","seeders":1,"leechers":0,"uploader":".BONE.","files":3,"time":1341938122,"description":"A Wall Street investment banker who has been set up as the linchpin of his company's mob-backed Ponzi scheme is relocated with his family to Aunt Madea's southern home. \n\nFormat : AVI\nFormat/Info : Audio Video Interleave\nFile size : 700 MiB\nDuration : 1h 46mn\nOverall bit rate : 916 Kbps\nWriting application : VirtualDubMod 1.5.4.1 (build 2178/release)\nWriting library : VirtualDubMod build 2178/release\n\nVideo\nID : 0\nFormat : MPEG-4 Visual\nFormat profile : Advanced Simple@L5\nFormat settings, BVOP : Yes\nFormat settings, QPel : No\nFormat settings, GMC : No warppoints\nFormat settings, Matrix : Custom\nCodec ID : XVID\nCodec ID/Hint : XviD\nDuration : 1h 46mn\nBit rate : 651 Kbps\nWidth : 532 pixels\nHeight : 304 pixels\nDisplay aspect ratio : 16:9\nFrame rate : 29.970 fps\nColor space : YUV\nChroma subsampling : 4:2:0\nBit depth : 8 bits\nScan type : Progressive\nBits/(Pixel*Frame) : 0.134\nStream size : 498 MiB (71%)\nWriting library : XviD 64\n\nAudio\nID : 1\nFormat : MPEG Audio\nFormat version : Version 1\nFormat profile : Layer 3\nMode : Joint stereo\nMode extension : MS Stereo\nCodec ID : 55\nCodec ID/Hint : MP3\nDuration : 1h 46mn\nBit rate mode : Constant\nBit rate : 256 Kbps\nChannel(s) : 2 channels\nSampling rate : 48.0 KHz\nStream size : 196 MiB (28%)\nAlignment : Aligned on interleaves\nInterleave, duration : 67 ms (2.00 video frames)\nInterleave, preload duration : 504 ms\nWriting library : LAME3.98.4\n\n\nSource Used\n\nmiRaGe ... Thanks","torrent":{"xt":"urn:btih:b583e8fbaeb605cab60357c9a927c874ead35f91","amp;dn":"Madeas+Witness+Protection+2012+CAM+RIP+Xvid-FANTA","amp;tr":["udp%3A%2F%2Ftracker.openbittorrent.com%3A80","udp%3A%2F%2Fopen.demonii.com%3A1337","udp%3A%2F%2Ftracker.coppersurfer.tk%3A6969","udp%3A%2F%2Fexodus.desync.com%3A6969"],"infoHash":"b583e8fbaeb605cab60357c9a927c874ead35f91","infoHashBuffer":{"type":"Buffer","data":[181,131,232,251,174,182,5,202,182,3,87,201,169,39,200,116,234,211,95,145]},"announce":[],"urlList":[]}}